<?xml version="1.0" encoding="utf-8"?>
<!-- Generator: Adobe Illustrator 27.1.1, SVG Export Plug-In . SVG Version: 6.00 Build 0)  -->
<svg version="1.1" id="Слой_3" xmlns="http://www.w3.org/2000/svg" xmlns:xlink="http://www.w3.org/1999/xlink" x="0px" y="0px"
	 viewBox="0 0 2000 2000" style="enable-background:new 0 0 2000 2000;" xml:space="preserve">
<style type="text/css">
	.st0{fill:#048DB7;stroke:#00C4C9;stroke-width:5.4764;stroke-linecap:round;stroke-linejoin:round;stroke-miterlimit:10;}
</style>
<path class="st0" d="M1905,840l-8-10l-5-9v-10l3-6l-12-7l-11,2l-4-2l-1-7l-8-3l-1-6l-6-4l-4,2l-3-2l-2-5l6-2l-7-9l1-5l-3-4l-2-18
	l-7,9l-8,1l2,9l-7,20l4,6l-3,5l-4-2v6l-10,5h-8l10,6l-5,10l-9-3l-8-9l-30,1l-1-31l5-2l-4-3l-11,6l-10-1l-9-5l-7,5l-12-11l3-4l-21-16
	l-1-13l-22-16l-4-8l1-6l-11-6l-9-11l-7-18l2-7l-4-2l-9-12l-2-20l-20-9l-3-8l-17-12l-8-22l-1-10l4-9l7-3l-4-3v-10l11-4l18-10l9-8
	h6.74l3.26-4l10-3l18,3l4-7l-12-3l-4-8l-11,6l-8.65-6l-2.35-7h-8.61l-14.39,6l-11,1l-15,10l-16,7l-7-2l-8,13l-6,2l-6,10h-5l-2,7
	l-10,6l-12,1l-10-7l-3-7l-1-11l-7-2l-10-18l-32,19l-10-1l-2,10l-3,3v6l6,5v7l8,5l1,5l4,1l1,3h6l18,5h9l9,16l4,16l-2,13l-4,11l-10,10
	l-1,19l-23,17l-6-3l-2,8l-17,9l-2,14l-5,14l-23,14l-18,22l2,5l-6,6l-4-4l-10,15l-9,4l3,20l-16,3h-8l-3,6l-7,3l-8-5l-4,6l-6,7l-12,3
	l-12-7h-12l-9-7l-3-9l3-15l-3-1l-4,9l-17-8l-1-6l-6,1l-9-6l-2-7l-12,7l-13-3l-16,17l-7,3l9,11l1,9l9,7l3,10l5-3h10l4,7h6l7,4l4,8v7
	l10,4l7-5l13,2l6,9l16,11l3,10l10,2l1,5l-6,5l3,11l7,5l-5,5l1,17l-6,3l-6,11l-8,3l-14,8l-13-1l-4,6l-30,3l-12-6l-10,5l-23,6l-5-3
	l-6,11l-14,17l-11,2l0.78,12l-26.78,18h-7l-16,22l-10,3l-5,11l-8,5l2,9l-24,28l4,6l2,6l-7,7h-8l-4-6h-9l-1,5l-8,4.87l-5-0.87l-8,8
	l-4,1l1,4l-5,5l-3-3l-3,7h-5l-6,7l1,5l-14,12h-8l-5-6l-13,11l-3-4l17-16l3,3l56-56l-9-7l-4,2h-5l-3,4l-5-2l-7-1l-8-7l1-5l-7-6
	l-35,35l5,6l-6,7l13,12l-17,20l-5-3l-5,19l-9,8l3,15l-7,24l-7,4l1,24l-20,21l-8-1l-16,21l-9,2v7l-16,9l-17,16l3,4l-13,14l-15,6
	l-11,8l-11-7l-5,6l-18-4l-4-5l-5,3l-5-1l-11-7l-4,3h-9l-5-8l-17-9l-2-6l-11-11l-7,1l-9-6l-3-5l-13-8l-12-11l-2-12l-9-8h-5l-3-4v-3
	l-7-4l-1-9l-8,5l-8,1l-13-6l-5-7v-12l2-6l6-5l-7,1l-4-19l6-4l-5-4l-4-23l2-11l-3-10l1-11l4-17l6-8l1-19l14-24l6-4v-6l3-4l-16-13
	l-2-8h-12l-1-3l-6,3l-11.48-7.77L520,1004h-5l-9-12l-5-1l-6-12l-7-2l-10,10l-14-13l-3,2l-3-3l-11,10l-18,1l-22,25l-8-1l-0.61,7.23
	h-6.65L384,1025l-18,4l-28-21l-1-14l-7-6l-17-12v-7l-9,3l-3-4l-2-14l-6-7l-7-21l2-9l-8-8l-4-23l2-9l-2-4l1-15l10-24l8-5v-13l6-18
	l5-9l-4-4v-7l6-7l-13-10l-3-10l-16,24l-9,2l1,10l-7,10l-13,12l9,4l-3,10h-8l1,7l-14,13l1,9l-7,7l2,5l-4,1l-14-17h-7l-10-15l-14-14
	l-5,3l-9,1l-9-3l-6-9l-10.5-5.5l-20,24l-16,10l4.5,5.5l-4.5,6.22L108,856v4l9,6l-12.5,17.7h-8.98L90,901l-5,4l3,19v10h3.22l7.78,8h9
	l4.75,6.65L123,953h8.13l1.87,4h4l10,8l7-8h9l7.26,8l8.74-2l4-8v-4l-7-7l9-16l7,3l5-4l5-1l9,2l4,6v7.22l-2,4.78l4,1l3,13l15.22,5
	l8.78-10h8l4,5h7l17,32h4.91l30.09,27v5.96l17,17.04l5,12h6.22l3.78,3v5.52l5,10.48l5-5v-5.09l8-4.91l4,5l3,6h18v-7.65l9-14.35
	l15-17h9v-12.48l9-5.52l16.48,3.23L459,1019h11l5,9l11,3l7-4l11,10l13,26l-2.39,10l4.39,3v8.04L487,1108l1,6l-11,12l-14,11l2,9l-2,6
	l-14,13l2,6v10l-4,4l-2,7l-4,3l7,13l-14,16l-9-7l-4,4l6,10l3,17h22.78l2.22-2l5,6l4-4h4l6-5h7l5,4l2,5h16.04l1.96,2l9-5l7,9h18.43
	l18.57,11l20,19l4-4h7l26,33l-2,9l7,3l3,6v6.52h6.43L638,1348v9.17h5.35L673,1385l8-5l37,13l5,6l8,2l10,10v11.52l4,9.48v10.09
	l-3,9.91l-13,8l-15,9l-16,4h-15.13l-7.87,2l-3-2l-8,6l18,20l4,2v4l6,4l-1,7h15.35l11.65,3l-3-6l1-8l10-7l10-2l15-12h10l6,9h22l6,5
	l22-20l2-8l6,2l3-4l-2-6h-4l-6-10l-5-22l3-12l-4-8v-15l3-11l9-13v-18l4-12l9-11l8-6v-6.35l16-16.65l14-6l3-5l7,3l3-9l16-21v-4.83
	l14-34.17l-4-12l1-7l19-15l3-7l14-7l5,2v-3.57l12-3.43l30,1l4-5h10l6.5,7.43l6.5,0.57v8.43l7-0.43l9,10l9,15l8-1l4,7l8,2v11.65
	l29-30.65l13,11l5-4l6,1l-5-14l2-5l-9-6l-10-20l1-16l-16-3l-4-7l-3-18l10-22l8-6l-3-5l4-11l9-9l18-4l1.65-8l4.35-11l7-7l3-10h5
	v-7.77l10-9.23l17-10l10-12l15,5l16-1l7-6l10-2l9,2l10,9v12.04l11-1.04l29-12l2-6h7l16-9v-10.3l6-10.7l-4-10l4-8.65l3-4.35l8-2l2-4
	l4-3v-7.39l4-2.61v-6l6-5l6-14l9-11l8-2l-2-5l4-4l-6-4l-1-6l5-7l5,2v-5.43l7-6.57l10-1l4-7l-11-5l7-23l6-2l-13-11l-1-11l8-9l11-7
	l12-9h4v-5.87l4-4.13l22-6l12,3v-8.91l12-7.09l10,10l12,6l11,8l5,10l15,1l9-8l13-4l8-6h13l8-7l10,1v-7.04l11-10.96l9,5l13-1l5,3l4-2
	h7l29,27v4.39l4-3.39l7,5l6,9v7.78l7,1.22l8,10l-3,7l5,4v11.83l12,3.17l2,6l31,11l7,8l26,9l5,7l-2,5l6,6l9,15h13l8,14v10.52
	l-8,12.48l3,4l-6,7l-4-2l-3,5l2,4l-3,9l-4-2l-9,15l-33,4l-6-4l4,8l2,13l6,15l9-1l8,4v6l6-1l16,6h9l14-8l13-4l5-7h6l8-7l16-4l25-31
	v-8.22l6-1.78l4-3v-8.13l-15-3.87l-4-9l13-17l8-12l9-5l-3-4l3-4.3l-5-5.7l2-9l5-3l5,2v-5.43L1905,840z M209.5,883.5l-14-12l-21,20
	l-15-15l-3.5,0.54V882l-7,4l-5.54,7.25L137,895l-4.89-1.75l-3.61-3.75l-11,11l-5-6L129,879l4,2l8-10l10.87-10H156l18.17,18.75
	L189,864l3.5-0.5l3-4L215,877L209.5,883.5z"/>
</svg>
