<?xml version="1.0" encoding="utf-8"?>
<!-- Generator: Adobe Illustrator 27.1.1, SVG Export Plug-In . SVG Version: 6.00 Build 0)  -->
<svg version="1.1" id="Слой_4" xmlns="http://www.w3.org/2000/svg" xmlns:xlink="http://www.w3.org/1999/xlink" x="0px" y="0px"
	 viewBox="0 0 2000 2000" style="enable-background:new 0 0 2000 2000;" xml:space="preserve">
<style type="text/css">
	.st0{fill:#048DB7;stroke:#00C4C9;stroke-width:4;stroke-linecap:round;stroke-linejoin:round;stroke-miterlimit:10;}
</style>
<path class="st0" d="M1214.5,801.5l35-23.98V754.5l230-139l101-249l-42-40l-364,291L1000,732.91l-51.5-68.41l-63,66l38,47l-7,33
	L657.78,1000l-49.28-74.5l-47,14l-2-30L430.04,1000l14.46,45.5l-26,37l40,21l-19,160l-94-9l-47,126l59,130l-17,25l155,101l43,61
	l79-4l127,18l132-4l65,28l181-49l54-68l71-36l47-40l63-150l-59-312l-227-143l96-158L1214.5,801.5z M1170,1202l-33,24l-12,59.31
	l23,41.69l-28,23l-11,66h-52.09L909,1559l-181-18l-138-69l-36,3v-122.26l47,7.26l115-42l-11.26-32.69L900,1134l-38-27.78v-32.87
	l31-11.35l18,11l17-25l40,11l-7,35l65-63L1170,1202z"/>
</svg>
